#!OML:ASF H:\Dans Jumps\Project 1\Capture day 1\Session 1\subject.ASF
:FULLY-SPECIFIED
:DEGREES
470
root 0.548027 17.6004 11.1916 13.3345 -1.27758 -3.40485
lowerback 5.68636 0.840495 -0.75207
upperback 5.65537 1.06689 1.2437
thorax 2.60507 0.480783 1.66653
lowerneck -16.7872 1.16368 -0.758552
upperneck 25.6167 1.94476 -0.271942
head 11.0603 0.770396 0.307636
rclavicle 1.2424e-015 9.24349e-015
rhumerus -18.2239 -5.66899 -86.3132
rradius 29.0441
rwrist 26.8138
rhand -21.9671 -26.8
rfingers 7.12502
rthumb 4.44058 -56.7334
lclavicle 1.2424e-015 9.24349e-015
lhumerus -18.5295 -10.6548 92.3026
lradius 25.1172
lwrist 14.3197
lhand -27.3511 -6.97041
lfingers 7.12502
lthumb -0.759194 23.008
rfemur -22.8861 -1.55546 22.4311
rtibia 26.3564
rfoot -15.0143 -0.145424
rtoes 9.41338
lfemur -21.002 7.16921 -17.6587
ltibia 25.9679
lfoot -13.33 8.42215
ltoes -13.9904
471
root 0.548336 17.6 11.1918 13.248 -1.29754 -3.38767
lowerback 5.6293 0.838595 -0.752061
upperback 5.65995 1.06448 1.24595
thorax 2.64165 0.479262 1.66988
lowerneck -16.8456 1.15545 -0.807057
upperneck 26.166 1.92693 -0.171396
head 11.2773 0.765056 0.353419
rclavicle -1.37161e-014 1.39149e-015
rhumerus -18.0256 -5.4233 -86.4332
rradius 29.1067
rwrist 26.7206
rhand -21.9255 -26.7958
rfingers 7.12502
rthumb 4.48066 -56.7284
lclavicle -1.37161e-014 1.39149e-015
lhumerus -18.2523 -10.9191 92.3508
lradius 25.0723
lwrist 14.2665
lhand -27.3773 -6.92292
lfingers 7.12502
lthumb -0.784469 23.0554
rfemur -22.7914 -1.54278 22.406
rtibia 26.3603
rfoot -15.0253 -0.154534
rtoes 9.41321
lfemur -20.8879 7.14775 -17.6675
ltibia 25.945
lfoot -13.3266 8.44369
ltoes -13.8588
472
root 0.548733 17.5996 11.1919 13.1658 -1.31479 -3.3674
lowerback 5.57014 0.83706 -0.751397
upperback 5.6666 1.06259 1.24721
thorax 2.68155 0.478004 1.67187
lowerneck -16.8958 1.15176 -0.834271
upperneck 26.6703 1.91535 -0.0964354
head 11.4783 0.761925 0.387248
rclavicle 7.85199e-015 6.36111e-015
rhumerus -17.8361 -5.14412 -86.5506
rradius 29.1925
rwrist 26.594
rhand -21.91 -26.8031
rfingers 7.12502
rthumb 4.49568 -56.7354
lclavicle 7.85199e-015 6.36111e-015
lhumerus -17.9725 -11.1787 92.3944
lradius 25.0461
lwrist 14.2619
lhand -27.3835 -6.83389
lfingers 7.12502
lthumb -0.790525 23.1444
rfemur -22.7025 -1.53302 22.3773
rtibia 26.3654
rfoot -15.0373 -0.160098
rtoes 9.43005
lfemur -20.7795 7.13348 -17.6806
ltibia 25.922
lfoot -13.3223 8.45521
ltoes -13.7662
473
root 0.5492 17.5992 11.1921 13.0876 -1.32742 -3.34836
lowerback 5.50917 0.836084 -0.744302
upperback 5.67117 1.06166 1.2484
thorax 2.72039 0.477473 1.67016
lowerneck -16.9232 1.14663 -0.849242
upperneck 27.1258 1.90116 -0.0366701
head 11.6582 0.757534 0.412841
rclavicle -5.1684e-015 -4.67144e-015
rhumerus -17.659 -4.85277 -86.6632
rradius 29.2922
rwrist 26.453
rhand -21.918 -26.8177
rfingers 7.12502
rthumb 4.48799 -56.7501
lclavicle -5.1684e-015 -4.67144e-015
lhumerus -17.6985 -11.4464 92.4376
lradius 25.0348
lwrist 14.3024
lhand -27.4102 -6.75861
lfingers 7.12502
lthumb -0.81627 23.2196
rfemur -22.616 -1.529 22.3506
rtibia 26.3695
rfoot -15.052 -0.163392
rtoes 9.44662
lfemur -20.6759 7.12627 -17.693
ltibia 25.9002
lfoot -13.3264 8.45506
ltoes -13.6805
474
root 0.549541 17.5988 11.1921 13.015 -1.33705 -3.33362
lowerback 5.4525 0.835774 -0.731479
upperback 5.66745 1.06181 1.25073
thorax 2.74824 0.477784 1.6662
lowerneck -16.9199 1.13805 -0.863
upperneck 27.5326 1.88073 0.0216906
head 11.8146 0.750917 0.436436
rclavicle 2.98177e-015 -9.93923e-015
rhumerus -17.4977 -4.56713 -86.7695
rradius 29.3922
rwrist 26.3186
rhand -21.9403 -26.8373
rfingers 7.12502
rthumb 4.46641 -56.7702
lclavicle 2.98177e-015 -9.93923e-015
lhumerus -17.443 -11.7153 92.4821
lradius 25.0372
lwrist 14.3694
lhand -27.4134 -6.64702
lfingers 7.12502
lthumb -0.819402 23.3312
rfemur -22.5354 -1.51991 22.3289
rtibia 26.3721
rfoot -15.0649 -0.171942
rtoes 9.46952
lfemur -20.5806 7.12536 -17.7009
ltibia 25.8795
lfoot -13.3356 8.44813
ltoes -13.5985
475
root 0.549768 17.5983 11.1921 12.9479 -1.34375 -3.32181
lowerback 5.40154 0.835438 -0.715021
upperback 5.65569 1.06206 1.25339
thorax 2.76459 0.478392 1.66037
lowerneck -16.8802 1.12282 -0.894115
upperneck 27.8825 1.84787 0.102151
head 11.9421 0.740488 0.468871
rclavicle 1.37658e-014 4.07509e-015
rhumerus -17.35 -4.29108 -86.8713
rradius 29.4869
rwrist 26.1928
rhand -21.9829 -26.8564
rfingers 7.12502
rthumb 4.42527 -56.7902
lclavicle 1.37658e-014 4.07509e-015
lhumerus -17.2102 -11.9851 92.5272
lradius 25.0551
lwrist 14.4491
lhand -27.4444 -6.58986
lfingers 7.12502
lthumb -0.849328 23.3882
rfemur -22.4597 -1.50961 22.3115
rtibia 26.3717
rfoot -15.0762 -0.185317
rtoes 9.4801
lfemur -20.493 7.12785 -17.7058
ltibia 25.859
lfoot -13.3323 8.44158
ltoes -13.6032
476
root 0.549887 17.598 11.1919 12.8857 -1.34768 -3.31121
lowerback 5.3521 0.833858 -0.697354
upperback 5.64134 1.06069 1.25601
thorax 2.77746 0.478277 1.6538
lowerneck -16.8227 1.10202 -0.934678
upperneck 28.1875 1.80469 0.195669
head 12.049 0.726668 0.506005
rclavicle -7.85199e-015 -3.57812e-015
rhumerus -17.2056 -4.0277 -86.9705
rradius 29.5725
rwrist 26.0794
rhand -22.0409 -26.8749
rfingers 7.12502
rthumb 4.36927 -56.8099
lclavicle -7.85199e-015 -3.57812e-015
lhumerus -16.9928 -12.2374 92.569
lradius 25.0906
lwrist 14.5226
lhand -27.4808 -6.55589
lfingers 7.12502
lthumb -0.884415 23.422
rfemur -22.3885 -1.50064 22.2964
rtibia 26.3695
rfoot -15.0871 -0.200883
rtoes 9.48193
lfemur -20.4118 7.1301 -17.7096
ltibia 25.8376
lfoot -13.3198 8.43667
ltoes -13.649
477
root 0.550093 17.5978 11.1917 12.8246 -1.34626 -3.30172
lowerback 5.30731 0.828725 -0.676918
upperback 5.62645 1.05465 1.25929
thorax 2.78739 0.475938 1.64642
lowerneck -16.7624 1.07988 -0.977893
upperneck 28.4635 1.7584 0.292854
head 12.1445 0.711958 0.544475
rclavicle -1.85367e-014 -4.47266e-015
rhumerus -17.057 -3.77502 -87.0677
rradius 29.6429
rwrist 25.9808
rhand -22.1268 -26.8846
rfingers 7.12502
rthumb 4.28633 -56.8212
lclavicle -1.85367e-014 -4.47266e-015
lhumerus -16.7908 -12.4622 92.6061
lradius 25.1446
lwrist 14.579
lhand -27.5229 -6.57389
lfingers 7.12502
lthumb -0.925124 23.4038
rfemur -22.317 -1.50241 22.2838
rtibia 26.3653
rfoot -15.0981 -0.210558
rtoes 9.48712
lfemur -20.3315 7.12873 -17.7126
ltibia 25.8131
lfoot -13.3062 8.4327
ltoes -13.6849
478
root 0.550297 17.5976 11.1915 12.7637 -1.34327 -3.28742
lowerback 5.26083 0.821578 -0.661428
upperback 5.61701 1.04576 1.26156
thorax 2.80397 0.471949 1.64093
lowerneck -16.7104 1.05821 -1.0161
upperneck 28.7184 1.71237 0.384452
head 12.2341 0.697366 0.580128
rclavicle 1.14301e-015 6.06293e-015
rhumerus -16.8968 -3.53858 -87.1632
rradius 29.7017
rwrist 25.9025
rhand -22.2182 -26.8916
rfingers 7.12502
rthumb 4.19805 -56.83
lclavicle 1.14301e-015 6.06293e-015
lhumerus -16.5934 -12.6654 92.6371
lradius 25.2146
lwrist 14.6222
lhand -27.5678 -6.63252
lfingers 7.12502
lthumb -0.968503 23.345
rfemur -22.245 -1.51223 22.2667
rtibia 26.3597
rfoot -15.1084 -0.214205
rtoes 9.49339
lfemur -20.2508 7.12509 -17.7226
ltibia 25.7851
lfoot -13.2909 8.43413
ltoes -13.7102
479
root 0.550617 17.5975 11.1914 12.7024 -1.33848 -3.26996
lowerback 5.20952 0.812592 -0.64678
upperback 5.61287 1.03436 1.26364
thorax 2.82884 0.466599 1.63592
lowerneck -16.6619 1.03872 -1.04927
upperneck 28.9573 1.67088 0.464995
head 12.3186 0.68405 0.611512
rclavicle -5.2181e-015 1.6201e-014
rhumerus -16.7276 -3.31574 -87.2548
rradius 29.7505
rwrist 25.8417
rhand -22.3035 -26.9041
rfingers 7.12502
rthumb 4.11568 -56.8441
lclavicle -5.2181e-015 1.6201e-014
lhumerus -16.4016 -12.8398 92.6633
lradius 25.3038
lwrist 14.6571
lhand -27.5861 -6.6877
lfingers 7.12502
lthumb -0.986177 23.2898
rfemur -22.1716 -1.53445 22.2467
rtibia 26.3529
rfoot -15.1207 -0.206834
rtoes 9.50662
lfemur -20.1677 7.11659 -17.7375
ltibia 25.7541
lfoot -13.2754 8.44337
ltoes -13.7239
480
root 0.550979 17.5973 11.1912 12.6404 -1.33361 -3.25203
lowerback 5.15851 0.802739 -0.631935
upperback 5.61182 1.02175 1.26644
thorax 2.8568 0.460603 1.6316
lowerneck -16.6192 1.02254 -1.07551
upperneck 29.1883 1.63591 0.531966
head 12.4018 0.67269 0.637688
rclavicle -1.76421e-015 -4.27387e-015
rhumerus -16.5553 -3.10497 -87.3411
rradius 29.7911
rwrist 25.7948
rhand -22.3683 -26.9185
rfingers 7.12502
rthumb 4.0531 -56.8597
lclavicle -1.76421e-015 -4.27387e-015
lhumerus -16.2184 -12.9893 92.6861
lradius 25.4058
lwrist 14.6799
lhand -27.6032 -6.75855
lfingers 7.12502
lthumb -1.00264 23.2188
rfemur -22.0977 -1.56213 22.2264
rtibia 26.3459
rfoot -15.1318 -0.193369
rtoes 9.5223
lfemur -20.0833 7.10371 -17.7543
ltibia 25.7213
lfoot -13.2557 8.46447
ltoes -13.7504
481
root 0.551401 17.5971 11.1909 12.5807 -1.32856 -3.23475
lowerback 5.10347 0.792405 -0.615447
upperback 5.61403 1.00849 1.27033
thorax 2.89043 0.454261 1.62758
lowerneck -16.5834 1.00987 -1.09114
upperneck 29.4128 1.60874 0.579265
head 12.4845 0.663428 0.655885
rclavicle 2.88238e-015 -6.4605e-016
rhumerus -16.3793 -2.91489 -87.4207
rradius 29.8228
rwrist 25.7663
rhand -22.4187 -26.9319
rfingers 7.12502
rthumb 4.00446 -56.8741
lclavicle 2.88238e-015 -6.4605e-016
lhumerus -16.0379 -13.1254 92.7063
lradius 25.5141
lwrist 14.7089
lhand -27.6161 -6.82805
lfingers 7.12502
lthumb -1.01512 23.1493
rfemur -22.0267 -1.59413 22.2068
rtibia 26.3388
rfoot -15.1429 -0.173421
rtoes 9.55213
lfemur -20.0017 7.08369 -17.7709
ltibia 25.6891
lfoot -13.2368 8.49503
ltoes -13.7641
